# xmcd
#
# Track frame offsets:
#	150
#	16661
#	32669
#	44950
#	63274
#	82330
#	99788
#	114800
#	128068
#	144024
#	161149
#	178550
#	191141
#	208148
#	221093
#	238075
#
# Disc length: 3367 seconds
#
# Revision: 1
# Processed by: cddbd v1.5.2PL0 Copyright (c) Steve Scherf et al.
# Submitted via: audiograbber 1.83.01
#
DISCID=df0d2510
DTITLE=Various Artist - CBEP452-5
DYEAR=2000
DGENRE=Karaoke
TTITLE0=Alabama - If You're Gonna Play In Texas
TTITLE1=Strait, George - You Look So Good In Love
TTITLE2=McEntire, Reba - Can't Even Get The Blues
TTITLE3=Milsap, Ronnie - Lost In The Fifties
TTITLE4=Alabama - Mountain Music
TTITLE5=McEntire, Reba - Somebody Should Leave
TTITLE6=Nitty Gritty Dirt Band, The - Fishin' In The Dark
TTITLE7=Strait, George - Amarillo By Morning
TTITLE8=Judds, The - Why Not Me
TTITLE9=Alabama - Dixieland Delight
TTITLE10=Murray, Anne and Dave Loggins - Nobody Loves Me Like You Do
TTITLE11=Judds, The - Rockin' With The Rhythm Of The Rain
TTITLE12=Iglesis, Julio and Willie Nelson - To All The Girls I've Loved Before
TTITLE13=McEntire, Reba - How Blue
TTITLE14=Alabama - When We Make Love
TTITLE15=McEntire, Reba - Little Rock
EXTD=
EXTT0=
EXTT1=
EXTT2=
EXTT3=
EXTT4=
EXTT5=
EXTT6=
EXTT7=
EXTT8=
EXTT9=
EXTT10=
EXTT11=
EXTT12=
EXTT13=
EXTT14=
EXTT15=
PLAYORDER=
